<svg xmlns="http://www.w3.org/2000/svg" width="276" height="275" fill="none"><path stroke="#fff" stroke-linecap="round" stroke-linejoin="round" stroke-width="8.52" d="M95.436 103.071a158.332 158.332 0 0 1 17.773-20.99c36.593-36.567 104.065-62.02 133.273-54.877a2.365 2.365 0 0 1 1.772 1.82c7.036 30.664-18.256 96.654-54.984 133.177a157.835 157.835 0 0 1-21.049 17.773m-76.785-76.903c-11.28-1.021-22.559-.161-32.162 4.028-27.119 11.924-35.009 43.065-37.211 56.434a4.831 4.831 0 0 0 3.084 5.307 4.83 4.83 0 0 0 2.18.279l43.543-4.78m20.566-61.268-10.283 30.634M74.87 164.339c.03 3.284.227 6.565.59 9.829a9.748 9.748 0 0 0 2.848 5.956l16.86 16.86a9.748 9.748 0 0 0 5.961 2.847c3.245.362 6.506.559 9.77.591M74.87 164.339l10.283-30.634m25.746 66.717-4.775 43.506a4.842 4.842 0 0 0 1.495 4.004 4.826 4.826 0 0 0 4.086 1.254c13.374-2.148 44.58-10.039 56.434-37.152 4.189-9.614 5.049-20.834 4.082-32.06m-61.322 20.448 30.661-10.224m30.661-10.224-30.661 10.224m-56.407-56.493 6.64 25a35 35 0 0 0 24.804 24.832l24.963 6.661M72.624 175.01a24.2 24.2 0 0 0-14.153 6.896c-9.464 9.496-10.36 44.666-10.36 44.666s35.19-.897 44.66-10.371a24.025 24.025 0 0 0 6.902-14.164"/><g filter="url(#a)"><circle cx="168.122" cy="107.324" r="27" fill="url(#b)" transform="rotate(45 168.122 107.324)"/></g><circle cx="168.122" cy="107.324" r="27" fill="url(#c)" transform="rotate(45 168.122 107.324)"/><defs><linearGradient id="b" x1="141.122" x2="199.81" y1="95.095" y2="121.623" gradientUnits="userSpaceOnUse"><stop stop-color="#FF5B3C"/><stop offset="1" stop-color="#FF3196"/></linearGradient><linearGradient id="c" x1="141.122" x2="199.81" y1="95.095" y2="121.623" gradientUnits="userSpaceOnUse"><stop stop-color="#FF5B3C"/><stop offset="1" stop-color="#FF3196"/></linearGradient><filter id="a" width="214" height="214" x="61.122" y=".324" color-interpolation-filters="sRGB" filterUnits="userSpaceOnUse"><feFlood flood-opacity="0" result="BackgroundImageFix"/><feBlend in="SourceGraphic" in2="BackgroundImageFix" result="shape"/><feGaussianBlur result="effect1_foregroundBlur" stdDeviation="40"/></filter></defs></svg>